<svg xmlns="http://www.w3.org/2000/svg" viewBox="0 0 20 20"><path d="M17.79,14.5v-9L10,1,2.21,5.5v9L10,19ZM2.21,5.5,10,10l7.79-4.5M10,10v9" fill="none" stroke="#444" stroke-miterlimit="10" stroke-width="1.5"/><path d="M10,8a2,2,0,1,1-2,2A2,2,0,0,1,10,8Zm2.6-5.5A3,3,0,0,1,8.5,3.6,2.91,2.91,0,0,1,7.4,2.5L10,1ZM4.15,15.63a2.24,2.24,0,0,0-1.94-3.38V14.5Zm0-11.26A2.24,2.24,0,0,1,2.21,7.75V5.5Zm11.7,0a2.24,2.24,0,0,0,1.94,3.38h0V5.5ZM12,17.87a2.26,2.26,0,0,0-3.09-.81,2.33,2.33,0,0,0-.81.81L10,19Zm5.79-6.37a3,3,0,0,0-3,3A2.92,2.92,0,0,0,15.2,16l2.59-1.5Z" fill="#444"/></svg>
