<svg id="Layer_1" data-name="Layer 1" xmlns="http://www.w3.org/2000/svg" viewBox="0 0 20 20"><defs><style>.cls-1{fill:none;stroke:#444;stroke-miterlimit:10;stroke-width:1.5px;}.cls-2{fill:#444;}</style></defs><polygon class="cls-1" points="17.79 14.5 17.79 5.5 10 1 2.21 5.5 2.21 14.5 10 19 17.79 14.5"/><polyline class="cls-1" points="2.21 5.5 10 10 17.79 5.5"/><line class="cls-1" x1="10" y1="10" x2="10" y2="19"/><circle class="cls-2" cx="10" cy="10" r="2"/><path class="cls-2" d="M12.6,2.5a3,3,0,0,1-5.2,0L10,1Z"/><path class="cls-2" d="M4.15,15.63a2.2,2.2,0,0,0,.31-1.13,2.25,2.25,0,0,0-2.25-2.25V14.5Z"/><path class="cls-2" d="M4.15,4.37A2.2,2.2,0,0,1,4.46,5.5,2.25,2.25,0,0,1,2.21,7.75V5.5Z"/><path class="cls-2" d="M15.85,4.37a2.2,2.2,0,0,0-.31,1.13,2.25,2.25,0,0,0,2.25,2.25V5.5Z"/><path class="cls-2" d="M12,17.87a2.26,2.26,0,0,0-3.9,0L10,19Z"/><path class="cls-2" d="M17.79,11.5a3,3,0,0,0-3,3A2.93,2.93,0,0,0,15.2,16l2.59-1.5Z"/></svg>