<?xml version="1.0" encoding="utf-8"?>
<!-- Generator: Adobe Illustrator 25.2.1, SVG Export Plug-In . SVG Version: 6.00 Build 0)  -->
<svg version="1.1" id="Layer_1" xmlns="http://www.w3.org/2000/svg" xmlns:xlink="http://www.w3.org/1999/xlink" x="0px" y="0px"
	 viewBox="0 0 50 50" style="enable-background:new 0 0 50 50;" xml:space="preserve">
<style type="text/css">
	.st0{fill:#FFFFFF;}
	.st1{fill:#50E3C2;}
</style>
<g>
	<path d="M0,17.73h3.15v14.78H0V17.73z"/>
	<path d="M20.11,25.13c0-4.54,3.44-7.65,7.76-7.65c3.37,0,5.25,1.77,6.29,3.61l-2.7,1.33c-0.62-1.2-1.95-2.15-3.59-2.15
		c-2.57,0-4.52,2.06-4.52,4.85s1.95,4.85,4.52,4.85c1.64,0,2.97-0.93,3.59-2.15l2.7,1.31c-1.06,1.84-2.93,3.63-6.29,3.63
		C23.54,32.78,20.11,29.68,20.11,25.13z"/>
	<g>
		<path d="M7.51,28.04c1.04,1.09,2.66,1.99,4.7,1.99c1.73,0,2.57-0.82,2.57-1.66c0-1.11-1.29-1.49-2.99-1.88
			c-2.42-0.55-5.52-1.22-5.52-4.52c0-2.46,2.13-4.46,5.61-4.46c2.35,0,4.3,0.71,5.76,2.06l-1.75,2.31c-1.2-1.11-2.79-1.62-4.23-1.62
			c-1.42,0-2.17,0.62-2.17,1.51c0,1,1.24,1.31,2.95,1.71c2.44,0.55,5.54,1.29,5.54,4.57c0,2.7-1.93,4.74-5.92,4.74
			c-2.84,0-4.88-0.95-6.27-2.35L7.51,28.04z"/>
	</g>
	<path d="M39.92,22.58v9.93h-3.15V17.73H40l6.85,9.58v-9.58H50v14.78h-3.04L39.92,22.58z"/>
	<path d="M16.06,14.69c3.57-2.18,7.99-4.64,10.27-5.84c0.44-0.23,0.88-0.35,1.28-0.36c0.43,0,0.87,0.13,1.31,0.36
		c2.28,1.21,6.7,3.66,10.27,5.84h3.85c-0.26-0.28-0.54-0.55-0.88-0.76c-3.79-2.43-9.5-5.62-12.21-7.05
		c-0.76-0.4-1.54-0.61-2.35-0.62c-0.78,0.01-1.57,0.22-2.32,0.62c-2.71,1.43-8.42,4.61-12.21,7.05c-0.3,0.19-0.69,0.46-1.07,0.76
		H16.06z"/>
	<path d="M38.79,35.56c-3.49,2.12-7.67,4.44-9.86,5.6c-0.44,0.23-0.88,0.35-1.28,0.36c-0.43-0.01-0.87-0.13-1.31-0.36
		c-2.2-1.16-6.38-3.48-9.87-5.6h-4.11c0.26,0.19,0.53,0.38,0.74,0.52c3.79,2.44,9.5,5.62,12.21,7.05c0.76,0.4,1.54,0.61,2.35,0.62
		c0.79-0.01,1.57-0.22,2.32-0.62c2.71-1.43,8.42-4.61,12.21-7.05c0.23-0.15,0.42-0.34,0.61-0.51H38.79z"/>
</g>
</svg>
