<?xml version="1.0" encoding="utf-8"?>
<!-- Generator: Adobe Illustrator 25.2.2, SVG Export Plug-In . SVG Version: 6.00 Build 0)  -->
<svg version="1.1" id="logo" xmlns="http://www.w3.org/2000/svg" xmlns:xlink="http://www.w3.org/1999/xlink" x="0px" y="0px"
	 viewBox="0 0 800 599.6" style="enable-background:new 0 0 800 599.6;" xml:space="preserve">
<g>
	<path d="M0,183.5h50.3V420H0V183.5z"/>
	<path d="M321.7,301.9c0-72.7,55-122.4,124.1-122.4c53.9,0,84,28.4,100.7,57.8l-43.2,21.3c-11.3-21.2-33.4-34.5-57.5-34.4
		c-41.1,0-72.3,33-72.3,77.7s31.2,77.7,72.3,77.7c26.2,0,47.5-14.9,57.5-34.4l43.3,20.9c-17,29.4-46.8,58.2-100.7,58.2
		C376.7,424.3,321.7,374.6,321.7,301.9z"/>
	<path d="M120.1,348.4c19.6,20.5,46.8,32,75.2,31.9c27.7,0,41.1-13.1,41.1-26.6c0-17.7-20.6-23.8-47.9-30.2
		c-38.7-8.9-88.3-19.5-88.3-72.3c0-39.4,34-71.3,89.7-71.3c37.6,0,68.8,11.4,92.2,33l-28,36.9c-19.1-17.7-44.7-25.9-67.7-25.9
		c-22.7,0-34.8,9.9-34.8,24.1c0,16,19.9,20.9,47.2,27.3c39,8.9,88.7,20.6,88.7,73.1c0,43.3-30.8,75.9-94.7,75.9
		c-45.4,0-78-15.2-100.4-37.6L120.1,348.4z"/>
	<path d="M711.9,187.5c-0.5-25.6-14.7-50.5-37.2-64.9c-60.6-39-152-89.8-195.3-112.8c-23.2-13.1-51.5-13.1-74.7,0
		C361.3,32.8,270,83.7,209.3,122.6c-9.5,6.1-24.6,16.9-34,27.3c-1,1.1-0.9,2.8,0.2,3.8c0.5,0.5,1.3,0.7,2,0.7
		c4-0.3,8.2-0.5,12.4-0.5c1.4,0,2.8,0,4.2,0h1l3.2,0.1h0.9c1.1,0.1,2.2,0.1,3.3,0.2h0.7c1.1,0.1,2.3,0.2,3.4,0.2l0.5,0
		c1.2,0.1,2.4,0.2,3.6,0.4h0.3c1.3,0.1,2.6,0.3,3.8,0.5h0.1c1.3,0.2,2.6,0.4,4,0.5l0,0l1.3,0.2c1.7,0.3,3.4-0.2,4.7-1.2
		c1.1-0.9,2.3-1.7,3.5-2.5c59.8-38.1,150-88.4,192.8-111c12.8-7.6,28.7-7.6,41.5,0c42.8,22.6,133,72.9,192.7,111.2
		c12.4,8,20.6,22,20.9,35.7c0.7,37.2,1.1,74.8,1.1,111.6s-0.4,74.3-1.1,111.6c-0.3,13.7-8.5,27.7-20.9,35.7
		c-59.7,38.4-149.9,88.6-192.7,111.3c-12.8,7.6-28.7,7.6-41.5,0c-42.5-22.5-131.9-72.1-191.5-110.5c-1-0.6-2.2-0.8-3.3-0.6
		c-3.3,0.6-6.7,1.2-10.2,1.6l-1.5,0.2c-1.1,0.1-2.3,0.3-3.4,0.4c-1.6,0.2-3.1,0.3-4.7,0.4l-2.1,0.1c-1.3,0.1-2.6,0.1-4,0.2l-1.9,0.1
		c-2,0.1-3.9,0.1-5.9,0.1c-3.4,0-6.8-0.1-10.1-0.2c-1.1-0.1-2.1,0.8-2.1,2c0,0.5,0.1,0.9,0.4,1.3c7.4,9.7,20.4,18.5,28.4,23.6
		c60.7,39,152,89.8,195.3,112.8c23.2,13.1,51.5,13.1,74.7,0c43.4-22.9,134.7-73.8,195.4-112.8c22.5-14.4,36.7-39.3,37.2-64.9
		c0.7-37.4,1.1-75.2,1.1-112.2l0,0C713,262.8,712.6,225,711.9,187.5z"/>
	<path d="M640.1,183.5h-51.7V420h50.4V261.1l24.8,35c0-26.8-0.3-53.9-0.7-80.8L640.1,183.5z"/>
	<path d="M749.6,183.5v153.2L727,305.1c-0.1,26.4-0.3,53-0.7,79.7l25,35.3H800V183.5H749.6z"/>
</g>
</svg>
