<?xml version="1.0" encoding="UTF-8"?>
<svg width="32px" height="32px" viewBox="0 0 32 32" version="1.1" xmlns="http://www.w3.org/2000/svg" xmlns:xlink="http://www.w3.org/1999/xlink">
    <!-- Generator: Sketch 51.2 (57519) - http://www.bohemiancoding.com/sketch -->
    <title>WP-icon</title>
    <desc>Created with Sketch.</desc>
    <defs></defs>
    <g id="WP-icon" stroke="none" stroke-width="1" fill="none" fill-rule="evenodd">
        <g id="Group-21-Copy-3" transform="translate(0.000000, 1.000000)" fill="#000000">
            <path d="M15.0921443,9.26827541 C14.8702426,9.26827541 14.6168656,9.17358689 14.4584393,8.98447213 C14.1415869,8.63771803 14.1733246,8.10158689 14.5219148,7.7863082 C16.8980459,5.70525902 17.9752918,3.97096393 18.1651934,3.65568525 C18.8626361,2.4260459 20.0028328,1.79522623 21.1752918,1.98434098 C21.6503082,2.0475541 21.9671607,2.45752131 21.9039475,2.93043934 C21.8407344,3.40335738 21.4289311,3.71863607 20.9533902,3.65568525 C20.2564721,3.56099672 19.8129311,4.2232918 19.6227672,4.50709508 C19.4008656,4.88532459 18.2286689,6.80873443 15.6623738,9.07916066 C15.5039475,9.2050623 15.2823082,9.26827541 15.0921443,9.26827541" id="Fill-7"></path>
            <path d="M0.866334426,23.5204459 C0.612957377,23.5204459 0.391055738,23.4257574 0.232629508,23.2051672 C-0.0524852459,22.8584131 -0.020747541,22.322282 0.327842623,22.006741 C1.15144918,21.3132328 2.8624,20.2409705 3.43262951,19.9256918 C3.84443279,19.7051016 4.35144918,19.8942164 4.57335082,20.3041836 C4.79499016,20.7141508 4.60482623,21.2185443 4.19302295,21.4391344 C3.74948197,21.6599869 2.16548197,22.6690361 1.40508852,23.2995934 C1.2466623,23.4572328 1.05649836,23.5204459 0.866334426,23.5204459" id="Fill-9"></path>
            <path d="M22.125823,15.542977 C22.4741508,15.8582557 22.8544787,15.7320918 23.2028066,15.3850754 C25.6424131,13.0519607 28.2404459,9.42599344 29.0960525,7.53405902 C29.2862164,7.1240918 29.666282,6.90350164 30.0466098,7.06114098 C30.5218885,7.25025574 30.5218885,8.06992787 30.0780852,8.9213377 C28.9376262,11.2232393 27.3851016,13.7772066 24.2803148,16.9932066 C23.9952,17.3084852 24.0266754,17.7187148 24.2803148,17.9393049 C24.5654295,18.1916328 25.0089705,18.1601574 25.4210361,17.7501902 C27.0367738,16.1105836 28.1137574,14.8492066 29.032577,13.5563541 C29.2862164,13.2096 29.5713311,13.0834361 29.8564459,13.1466492 C30.2682492,13.2410754 30.3317246,13.6195672 30.2050361,14.0924852 C30.0148721,14.8492066 27.8603803,17.6240262 27.0367738,18.5698623 C24.7553311,21.1238295 22.4426754,22.5111082 18.038741,24.8132721 C16.4862164,25.6014689 15.3454951,26.3896656 14.648577,27.5563541 C14.0148721,28.6283541 13.8247082,28.9753705 13.7614951,29.1012721 C13.508118,29.6056656 13.6980197,30.268223 14.2365115,30.5202885 C14.3949377,30.5835016 14.5218885,30.614977 14.6803148,30.614977 C15.092118,30.614977 15.4721836,30.3626492 15.6306098,29.9844197 C15.6306098,29.9844197 15.5991344,30.0158951 16.422741,28.5968787 C16.8345443,27.9345836 17.6901508,26.9255344 19.0207738,26.3264525 C23.4247082,24.3086164 25.2623475,22.7319607 27.8286426,20.1779934 C29.0011016,19.0115672 30.6168393,16.5205508 31.0603803,15.7953049 C32.2960525,13.7139934 31.6623475,11.948223 30.5218885,11.664682 C30.4266754,11.6329443 30.3949377,11.538518 30.4266754,11.4438295 C31.2820197,9.9618623 31.6940852,8.95281311 31.8525115,8.16461639 C32.0744131,7.09261639 31.7575607,5.79976393 30.2999869,5.48448525 C30.2367738,5.45300984 30.1732984,5.39005902 30.2050361,5.29537049 C30.2999869,4.9483541 30.3949377,4.53838689 30.4586754,4.2548459 C30.7752656,2.86730492 29.8881836,1.60619016 28.8109377,1.3853377 C28.0505443,1.22769836 27.3851016,1.3853377 26.8148721,1.79530492 C26.7199213,1.85851803 26.6247082,1.82704262 26.5614951,1.76382951 C26.3395934,1.51150164 25.9592656,1.25917377 25.4525115,1.25917377 C24.5336918,1.22769836 23.6148721,1.51150164 22.9496918,2.93051803 C22.4741508,3.93956721 21.7772328,5.29537049 19.6862164,7.59700984 C17.7533639,9.74127213 15.0603803,11.7905836 13.4129049,12.8943213 C13.1277902,13.0834361 12.7159869,13.0519607 12.7474623,12.6419934 C12.8109377,12.0114361 13.476118,7.88081311 13.6030689,6.65117377 C13.7929705,4.66455082 12.7159869,3.75019016 11.5117902,3.59255082 C10.5297574,3.46638689 9.00897049,3.75019016 8.18510164,5.98887869 C7.71008525,7.31346885 6.69605246,9.45746885 5.8407082,12.9257967 C5.23874098,15.3850754 5.14352787,18.2231082 5.68228197,21.5023213 C5.71401967,21.6914361 5.68228197,21.9122885 5.58706885,22.0699279 C4.92188852,23.1419279 3.97133115,24.5609443 3.43257705,25.7905836 C3.2109377,26.294977 3.40110164,26.894059 3.87611803,27.1463869 C4.03454426,27.2410754 4.19297049,27.2725508 4.38313443,27.2725508 C4.7634623,27.2725508 5.14352787,27.0519607 5.3336918,26.6734689 C5.65054426,26.0111738 6.31598689,24.750059 6.56936393,24.2141902 C7.01290492,23.2995672 7.29801967,22.7004852 7.4247082,22.3222557 C7.51965902,21.9752393 7.61487213,21.5655344 7.39323279,20.6826492 C7.04464262,19.1689443 6.94942951,16.2996984 7.55165902,13.7454689 C8.37526557,10.4033049 9.80110164,6.65117377 10.0544787,6.02061639 C10.3078557,5.39005902 10.6564459,5.20068197 11.0050361,5.23215738 C11.3536262,5.26389508 12.0505443,5.42153443 11.8603803,6.68264918 C11.5117902,8.95281311 11.0367738,11.8223213 10.8783475,12.7998951 C10.7831344,13.2728131 10.7199213,14.3762885 11.5752656,14.8809443 C12.2724459,15.2906492 13.0328393,15.0697967 13.8564459,14.5024525 C15.725823,13.2410754 18.9890361,10.7185836 21.0168393,8.44841967 C23.1395934,6.0520918 23.8365115,4.63307541 24.3752656,3.34048525 C24.6286426,2.74114098 25.2623475,2.77261639 25.4842492,2.83582951 C25.7058885,2.89878033 25.9910033,3.21432131 25.8011016,3.84487869 C25.325823,5.42153443 23.3614951,9.01602623 19.622741,12.3899279 C19.2109377,12.7681574 19.2426754,13.2096 19.464577,13.4619279 C19.6544787,13.682518 20.066282,13.8401574 20.5100852,13.4619279 C23.8999869,10.5924197 25.8011016,7.15556721 26.6881836,5.3268459 C27.1317246,4.41248525 27.2898885,3.8763541 27.4168393,3.43491148 C27.606741,2.89878033 28.0188066,2.70966557 28.3041836,2.77261639 C28.7159869,2.86730492 29.0011016,3.27727213 28.8424131,3.97104262 C28.7159869,4.57012459 28.3673967,5.54769836 27.9235934,6.52500984 C26.8466098,8.82691148 24.5654295,11.8852721 22.0940852,14.5024525 C21.8407082,14.8177311 21.7772328,15.2276984 22.125823,15.542977" id="Fill-11"></path>
            <path d="M6.6811541,4.17592131 C6.80653115,4.04897049 6.77505574,3.92201967 6.71236721,3.79480656 C6.52456393,3.22352787 5.52259672,0.778937705 5.2408918,0.302872131 C5.11551475,0.0489704918 4.92771148,0.0172327869 4.7399082,0.0807081967 C4.48941639,0.175921311 4.20744918,0.398085246 3.73794098,0.81067541 C3.26817049,1.22352787 3.01767869,1.47742951 2.89256393,1.73133115 C2.7984,1.92175738 2.7984,2.0807082 3.01767869,2.23939672 C3.45597377,2.55677377 5.7104,3.92201967 6.24285902,4.17592131 C6.4306623,4.23939672 6.55577705,4.30287213 6.6811541,4.17592131" id="Fill-13"></path>
            <path d="M1.97419016,5.03606557 C1.69064918,5.03606557 1.56448525,5.15986885 1.53300984,5.34557377 C1.50153443,5.59344262 1.53300984,5.96485246 1.62769836,6.55318033 C1.72212459,7.1412459 1.81655082,7.51265574 1.94271475,7.72957377 C2.03714098,7.88432787 2.19478033,7.97718033 2.4468459,7.88432787 C2.95097705,7.66767213 5.28225574,6.46006557 5.78638689,6.11960656 C5.88081311,6.05770492 6.00697705,5.96485246 5.97523934,5.81009836" id="Fill-15"></path>
            <path d="M25.5210492,25.4991738 C25.3665574,25.4991738 25.304918,25.6565508 25.2739672,25.7821902 C25.0575738,26.348223 24.4396066,28.8956328 24.3467541,29.4301902 C24.3158033,29.7132066 24.4086557,29.8391082 24.5940984,29.902059 C24.8411803,29.9647475 25.2120656,29.9647475 25.7993443,29.9332721 C26.3863607,29.902059 26.7572459,29.8391082 27.0043279,29.7449443 C27.1897705,29.6502557 27.282623,29.5246164 27.1897705,29.2416 C27.0352787,28.7067803 26.077377,26.2852721 25.7993443,25.7507148 C25.7681311,25.6248131 25.6758033,25.4676984 25.5210492,25.4991738" id="Fill-17"></path>
            <path d="M26.9980066,24.3147541 C26.903318,24.4750164 27.029482,24.6038033 27.0926951,24.7000656 C27.4714492,25.181377 29.3022689,27.1074098 29.7442361,27.4607213 C29.9653508,27.6535082 30.1229902,27.6212459 30.2808918,27.4607213 C30.4700066,27.2681967 30.6596459,26.9471475 30.9437115,26.4013115 C31.227777,25.8554754 31.3856787,25.5024262 31.4171541,25.2456393 C31.4486295,25.0528525 31.353941,24.8925902 31.1016131,24.7963279 C30.5649574,24.6358033 27.9763672,24.2184918 27.3767607,24.1862295 C27.2505967,24.1862295 27.0926951,24.1542295 26.9980066,24.3147541" id="Fill-19"></path>
        </g>
    </g>
</svg>