<?xml version="1.0" encoding="utf-8"?>
<!-- Generator: Adobe Illustrator 27.2.0, SVG Export Plug-In . SVG Version: 6.00 Build 0)  -->
<svg version="1.2" baseProfile="tiny" id="Layer_1" xmlns="http://www.w3.org/2000/svg" xmlns:xlink="http://www.w3.org/1999/xlink"
	 x="0px" y="0px" viewBox="0 0 30 30" overflow="visible" xml:space="preserve">
<path d="M13.4,9.7l0.9-9c0.1-0.9,1.3-0.9,1.4,0l0.9,9c0.2,2,1.8,3.6,3.7,3.7l9,0.9c0.9,0.1,0.9,1.3,0,1.4l-9,0.9
	c-2,0.2-3.6,1.8-3.7,3.7l-0.9,9c-0.1,0.9-1.3,0.9-1.4,0l-0.9-9c-0.2-2-1.8-3.6-3.7-3.7l-9-0.9c-0.9-0.1-0.9-1.3,0-1.4l9-0.9
	C11.7,13.2,13.2,11.7,13.4,9.7z" fill="currentColor"/>
</svg>
