<?xml version="1.0" encoding="utf-8"?>
<!-- Generator: Adobe Illustrator 22.0.1, SVG Export Plug-In . SVG Version: 6.00 Build 0)  -->
<svg version="1.1" xmlns="http://www.w3.org/2000/svg" xmlns:xlink="http://www.w3.org/1999/xlink" x="0px" y="0px"
	 viewBox="0 0 256 256" style="enable-background:new 0 0 256 256;" xml:space="preserve">
<style type="text/css">
	.st0{fill:url(#SVGID_1_);}
	.st1{fill:#28646E;}
	.st2{fill:url(#SVGID_2_);}
	.st3{fill:url(#SVGID_3_);}
	.st4{fill:url(#SVGID_4_);}
	.st5{fill:url(#SVGID_5_);}
	.st6{fill:url(#SVGID_6_);}
	.st7{fill:#D7ECEC;}
	.st8{fill:url(#SVGID_7_);}
	.st9{fill:url(#Oval_1_);}
	.st10{fill:url(#SVGID_8_);}
	.st11{fill:url(#SVGID_9_);}
	.st12{fill:url(#SVGID_10_);}
	.st13{fill:url(#SVGID_11_);}
	.st14{fill:none;stroke:#00FFFF;stroke-width:0.25;stroke-miterlimit:10;}
</style>
<g id="Layer_1">
	<g>
		<linearGradient id="SVGID_1_" gradientUnits="userSpaceOnUse" x1="0" y1="128" x2="256" y2="128">
			<stop  offset="0" style="stop-color:#D2F0F0"/>
			<stop  offset="1" style="stop-color:#F0E6B4"/>
		</linearGradient>
		<circle class="st0" cx="128" cy="128" r="128"/>
		<g>
			<g>
				<g>
					<path class="st1" d="M128,248C61.8,248,8,194.2,8,128S61.8,8,128,8s120,53.8,120,120S194.2,248,128,248z M128,18.2
						C67.4,18.2,18.2,67.4,18.2,128S67.4,237.8,128,237.8S237.8,188.6,237.8,128S188.6,18.2,128,18.2z"/>
					<g>
						<g>
							<g>
								<g>
									<path class="st1" d="M120.1,106.1c-0.9,0-1.9-0.4-2.6-1.2c-1.2-1.4-1.1-3.6,0.3-4.8c9.6-8.5,13.9-15.5,14.7-16.8
										c2.8-4.9,7.4-7.5,12.2-6.8c1.9,0.3,3.2,2,2.9,3.8c-0.3,1.9-2,3.2-3.8,2.9c-2.8-0.4-4.7,2.3-5.3,3.5
										c-0.9,1.5-5.6,9.3-16.1,18.5C121.7,105.8,120.9,106.1,120.1,106.1z"/>
									<path class="st1" d="M62.6,163.9c-1,0-1.9-0.4-2.6-1.2c-1.2-1.4-1-3.6,0.4-4.8c3.4-2.8,10.2-7.2,12.6-8.4
										c1.7-0.8,3.7-0.2,4.6,1.5c0.8,1.7,0.2,3.7-1.5,4.6c-1.8,0.9-8.2,5-11.2,7.5C64.2,163.7,63.4,163.9,62.6,163.9z"/>
									<path class="st1" d="M148.4,131.5c1.4,1.3,2.9,0.7,4.4-0.7c9.9-9.5,20.4-24.2,23.8-31.9c0.7-1.6,2.3-2.6,3.9-1.9
										c1.9,0.8,1.9,4,0.2,7.6c-4.6,9.4-10.9,19.8-23.4,32.7c-1.2,1.2-1,2.9,0.1,3.9c1.1,1,2.9,0.9,4.6-0.8
										c6.5-6.6,10.9-11.8,14.6-17.1c1-1.4,2.1-1.9,3.3-1.7c1.6,0.3,1.9,1.9,1.4,3.8c-0.8,3.1-9.5,14.4-12.9,18.2
										c-9.3,10.3-18.6,16-36.4,25.3c-6.2,3.2-10.9,6.3-13.7,11.1c-2.6,4.3-3.3,5.8-3.6,6.3c-1,2.1-0.2,4.8,1.9,5.8
										c0.6,0.3,1.2,0.4,1.8,0.4c1.6,0,3.2-1,3.9-2.6c0-0.1-0.1,0.1,3.2-5.6c1.6-2.7,5.1-6.8,10.5-9.3
										c17.9-8.1,25.2-14.6,35.5-24.9c4.7-4.7,11.3-14.9,13-17.9c5-8.4,2.4-15.6-2.1-16.8c-0.4-0.1-0.6-0.5-0.4-0.8
										c3.5-6,5.1-10.1,5.7-13.3c0.9-4.3-0.3-9.6-6.3-10.9c-0.3-0.1-0.5-0.4-0.4-0.7c0.4-1.4,0.7-3.1,1-4.3
										c1.3-5.6-2.3-10.8-6.6-11.7c-3-0.6-5.7,0-8,1.7c-0.3,0.2-0.8,0.2-1-0.1c-0.9-1-2.4-2-4.5-2.1c-3.7-0.1-7.4,1.1-10.1,6.8
										c-1.9,4.1-4.8,9.6-13.2,18.9c-7.8,8.6-18.6,17.1-25.3,21.5c-1.2,0.8-2.8,0.6-2.6-1c0.3-2.5,3-19.3,3.5-24.3
										c0.7-8.1-3.6-11.7-8.4-12.4c-4-0.5-10.1,0.6-13.4,9.7c-1.9,5.3-6,14.1-9.5,28.2c-2.4,9.9-2.8,21.5-0.6,34.8
										c0.1,0.8,0,1.6-0.4,2.3c-2.7,4.4-6.5,10.1-8.7,15.1c-0.9,2-0.1,4.4,1.8,5.5c0.6,0.4,1.3,0.5,2,0.5c1.6,0,3.1-0.9,3.8-2.4
										c1.3-2.7,3.9-7.8,5-9.9c1.8-3.7,3-6.1,3.5-7.7c0.4-1.4,0.7-3-0.1-6.7c-1.4-6.2-1.8-17.8,0.7-28.1
										c3.4-13.6,9-28.8,10.1-31.4s2.5-3.3,3.9-3.2c1.4,0.1,4.2,0.8,3.4,6c-1.4,9.2-3.4,20.9-4.1,24.8c-0.3,1.9-0.7,6.4,2.9,8.5
										c2.8,1.6,5.8,0.7,9.2-1.5c7.6-5.1,20.7-15.4,28.9-24.6c8.6-9.7,11.4-15.5,13.6-20.7c1-2.4,3.6-2.4,4.5-2.1s2,1.5,1.2,4.1
										c-1.9,6.4-9.8,21-25,34.7c-1.7,1.6-1.5,3.4-0.6,4.3c0.8,0.9,2.4,1.5,4.2,0c13.7-11.6,21.4-25.6,24.9-33
										c1.7-3.7,2.4-5.9,3-7.6c0.7-2.2,2.4-2.9,3.6-2.7c1.7,0.4,2.8,2.1,2.2,4.9c-0.5,2.4-1.9,6.4-3.7,10.4
										c-4.4,9.3-13.6,21.7-23.6,32.4C147.4,128.6,147.1,130.3,148.4,131.5z"/>
								</g>
							</g>
							<path class="st1" d="M86.7,85.3c0.5-0.5,0.3-1.1,0.2-1.5c-0.7-2.3-4.9-12.2-6-14.1c-0.6-1-1.3-1.1-2-0.8
								c-1,0.4-2.2,1.3-4.1,2.9c-1.9,1.6-2.9,2.7-3.4,3.7c-0.4,0.7-0.3,1.4,0.6,2.1c1.8,1.3,11,6.8,13.2,7.8
								C85.6,85.5,86.2,85.8,86.7,85.3L86.7,85.3z"/>
							<path class="st1" d="M66.7,88.6c-1.1,0-1.6,0.5-1.8,1.3c-0.2,1,0,2.6,0.4,5c0.4,2.4,0.8,3.9,1.3,4.8c0.4,0.7,1,1,2.1,0.6
								c2.1-0.8,11.5-5.9,13.5-7.2c0.4-0.3,0.9-0.6,0.8-1.3l0,0"/>
							<path class="st1" d="M162.4,172.1c-0.7,0-0.9,0.6-1.1,1.1c-0.8,2.3-3.5,12.6-3.8,14.9c-0.2,1.1,0.3,1.7,1.1,1.9
								c1,0.3,2.5,0.3,5,0.2c2.5-0.2,4-0.4,4.9-0.8c0.7-0.3,1.1-0.9,0.8-2c-0.6-2.2-4.6-12.1-5.8-14.2
								C163.4,172.6,163.1,172.1,162.4,172.1L162.4,172.1z"/>
							<path class="st1" d="M168.4,167.3c-0.3,0.6,0.1,1.1,0.4,1.5c1.5,1.9,9,9.5,10.7,11c0.9,0.7,1.6,0.6,2.2,0.1
								c0.8-0.7,1.6-2,2.7-4.2c1.1-2.2,1.7-3.6,1.9-4.7c0.1-0.8-0.2-1.4-1.3-1.7c-2.2-0.6-12.7-2.3-15.2-2.5
								C169.3,166.8,168.7,166.7,168.4,167.3L168.4,167.3z"/>
						</g>
					</g>
				</g>
				<g>
					<g>
						<circle class="st1" cx="128" cy="224.8" r="3.8"/>
						<circle class="st1" cx="128" cy="31.2" r="3.8"/>
					</g>
				</g>
				<g>
					<g>
						<circle class="st1" cx="153" cy="221.5" r="3.8"/>
						<circle class="st1" cx="103" cy="34.5" r="3.8"/>
					</g>
				</g>
				<g>
					<g>
						<circle class="st1" cx="176.4" cy="211.8" r="3.8"/>
						<circle class="st1" cx="79.6" cy="44.2" r="3.8"/>
					</g>
				</g>
				<g>
					<g>
						<circle class="st1" cx="196.4" cy="196.4" r="3.8"/>
						<circle class="st1" cx="59.6" cy="59.6" r="3.8"/>
					</g>
				</g>
				<g>
					<g>
						<circle class="st1" cx="211.8" cy="176.4" r="3.8"/>
						<circle class="st1" cx="44.2" cy="79.6" r="3.8"/>
					</g>
				</g>
				<g>
					<g>
						<circle class="st1" cx="221.5" cy="153" r="3.8"/>
						<circle class="st1" cx="34.5" cy="103" r="3.8"/>
					</g>
				</g>
				<g>
					<g>
						<circle class="st1" cx="224.8" cy="128" r="3.8"/>
						<circle class="st1" cx="31.2" cy="128" r="3.8"/>
					</g>
				</g>
				<g>
					<g>
						<circle class="st1" cx="221.5" cy="103" r="3.8"/>
						<circle class="st1" cx="34.5" cy="153" r="3.8"/>
					</g>
				</g>
				<g>
					<g>
						<circle class="st1" cx="211.8" cy="79.6" r="3.8"/>
						<circle class="st1" cx="44.2" cy="176.4" r="3.8"/>
					</g>
				</g>
				<g>
					<g>
						<circle class="st1" cx="196.4" cy="59.6" r="3.8"/>
						<circle class="st1" cx="59.6" cy="196.4" r="3.8"/>
					</g>
				</g>
				<g>
					<g>
						<circle class="st1" cx="176.4" cy="44.2" r="3.8"/>
						<circle class="st1" cx="79.6" cy="211.8" r="3.8"/>
					</g>
				</g>
				<g>
					<g>
						<circle class="st1" cx="153" cy="34.5" r="3.8"/>
						<circle class="st1" cx="103" cy="221.5" r="3.8"/>
					</g>
				</g>
			</g>
		</g>
	</g>
</g>
<g id="Layer_2">
</g>
</svg>
